<?xml version="1.0" standalone="no"?>
<!DOCTYPE svg PUBLIC "-//W3C//DTD SVG 20010904//EN"
 "http://www.w3.org/TR/2001/REC-SVG-20010904/DTD/svg10.dtd">
<svg version="1.0" xmlns="http://www.w3.org/2000/svg"
 width="749.000000pt" height="749.000000pt" viewBox="0 0 749.000000 749.000000"
 preserveAspectRatio="xMidYMid meet">
<metadata>
Created by potrace 1.14, written by Peter Selinger 2001-2017
</metadata>
<g transform="translate(0.000000,749.000000) scale(0.100000,-0.100000)"
fill="#000000" stroke="none">
<path d="M350 7015 c0 -3 191 -292 425 -643 l425 -637 0 -2242 0 -2243 1290 0
1290 0 0 -320 0 -320 540 0 540 0 0 725 0 725 279 0 c365 0 529 20 726 90 243
85 448 229 606 426 235 294 319 784 209 1221 -26 104 -76 221 -145 342 l-25
44 0 1189 0 1188 -992 0 -993 0 -50 -77 c-27 -42 -51 -80 -53 -84 -2 -5 429
-9 957 -9 l961 0 0 -1016 0 -1015 -58 44 c-165 127 -372 218 -597 261 -166 32
-302 36 -1102 36 l-803 0 0 -1640 0 -1640 -1205 0 -1205 0 0 2027 c0 1115 4
2023 8 2018 5 -6 115 -169 245 -362 l237 -353 0 -910 0 -910 535 0 535 0 0
905 0 905 753 1127 c415 621 757 1134 761 1141 6 9 -124 12 -636 12 l-643 0
-149 -230 -150 -230 -470 2 -470 3 -147 225 -147 225 -641 3 c-353 1 -641 0
-641 -3z m1234 -253 c168 -263 809 -1242 815 -1242 4 0 15 15 26 33 10 17 203
314 428 660 l409 627 424 0 c233 0 424 -2 424 -6 0 -3 -306 -462 -680 -1021
l-680 -1017 0 -843 0 -843 -355 0 -355 0 0 846 0 846 -673 1006 c-370 554
-676 1013 -681 1020 -6 9 81 12 421 12 l428 0 49 -78z m1164 -380 c-1 -5 -81
-128 -177 -275 l-173 -266 -145 222 c-80 122 -161 246 -179 275 l-34 52 356 0
c196 0 354 -4 352 -8z m2788 -1877 c449 -56 779 -273 920 -606 126 -297 119
-738 -14 -1023 -76 -162 -168 -276 -305 -378 -135 -100 -244 -154 -414 -204
-147 -43 -281 -53 -680 -54 l-363 0 0 -725 0 -725 -360 0 -360 0 0 1865 0
1865 728 0 c583 0 751 -3 848 -15z"/>
<path d="M4680 3380 l0 -610 184 0 c317 0 466 24 622 101 148 73 241 182 281
329 23 89 23 283 -1 365 -55 189 -193 314 -418 379 -117 34 -242 46 -473 46
l-195 0 0 -610z m559 405 c133 -26 261 -97 310 -171 60 -91 78 -277 38 -392
-62 -178 -277 -272 -624 -272 l-103 0 0 432 0 431 153 -6 c83 -4 185 -14 226
-22z"/>
<path d="M6473 2127 c-15 -13 -45 -34 -66 -46 -71 -43 -67 -21 -67 -357 l0
-304 -640 0 -640 0 0 -85 0 -85 725 0 725 0 0 450 c0 248 -2 450 -4 450 -3 0
-17 -10 -33 -23z"/>
</g>
</svg>
